#N canvas 294 64 1309 691 10;
#X obj 57 40 dumpOSC 57110;
#X msg 711 247 \; pd dsp 1;
#X obj 689 154 loadbang;
#X text 683 124 Turn DSP on when Pd turns on;
#X obj 687 289 print pd::DSP_Started;
#X obj 70 626 dac~;
#X obj 56 119 bng 15 250 50 0 empty empty empty 17 7 0 10 -262144 -1
-1;
#N canvas 0 22 450 278 (subpatch) 0;
#X array mybuf 220500 float 2;
#X coords 0 1 220500 -1 200 140 1 0 0;
#X restore 693 333 graph;
#N canvas 567 217 960 732 /test 0;
#X obj 255 51 inlet;
#X obj 138 84 osc~ 440;
#X obj 138 219 *~;
#X obj 217 158 float 1;
#X msg 281 186 0;
#X obj 279 156 delay 50;
#X obj 254 85 bng 15 250 50 0 empty empty empty 17 7 0 10 -262144 -1
-1;
#X obj 128 323 outlet~;
#X obj 131 259 *~ 0.45;
#X connect 0 0 6 0;
#X connect 1 0 2 0;
#X connect 2 0 8 0;
#X connect 3 0 2 1;
#X connect 4 0 2 1;
#X connect 5 0 4 0;
#X connect 6 0 5 0;
#X connect 6 0 3 0;
#X connect 8 0 7 0;
#X restore 55 299 pd /test;
#N canvas 111 427 694 444 recorder 0;
#X obj 137 60 inlet;
#X obj 311 61 inlet;
#X obj 30 58 adc~;
#X msg 312 143 stop;
#X obj 124 138 t b b;
#X text 136 30 rec start;
#X text 317 29 stop;
#X obj 108 175 del 10;
#X obj 135 283 tabwrite~ mybuf;
#X msg 156 171 \; mybuf const 0;
#N canvas 1076 531 906 544 stopwatch 0;
#X obj 106 42 inlet;
#X text 103 21 start;
#X obj 229 34 inlet;
#X text 233 13 stop;
#X obj 229 120 bng 15 250 50 0 empty empty empty 17 7 0 10 -262144
-1 -1;
#X obj 106 74 bng 15 250 50 0 empty empty empty 17 7 0 10 -262144 -1
-1;
#X obj 149 455 outlet;
#X obj 153 169 timer;
#X floatatom 154 244 12 0 0 0 - - -;
#X obj 154 201 * 0.001;
#X obj 230 80 onebang 1;
#X obj 107 101 t b b;
#X obj 231 61 bng 15 250 50 0 empty empty empty 17 7 0 10 -262144 -1
-1;
#X connect 0 0 5 0;
#X connect 2 0 12 0;
#X connect 4 0 7 1;
#X connect 5 0 11 0;
#X connect 7 0 9 0;
#X connect 8 0 6 0;
#X connect 9 0 8 0;
#X connect 10 0 4 0;
#X connect 11 0 7 0;
#X connect 11 1 10 1;
#X connect 12 0 10 0;
#X restore 337 282 pd stopwatch;
#X floatatom 336 311 16 0 0 0 - - -;
#X obj 344 393 s rec-time-in-smpl;
#X text 464 389 change playback speed;
#X obj 340 350 * 44100;
#X connect 0 0 4 0;
#X connect 1 0 3 0;
#X connect 2 0 8 0;
#X connect 3 0 8 0;
#X connect 3 0 10 1;
#X connect 4 0 7 0;
#X connect 4 1 9 0;
#X connect 7 0 8 0;
#X connect 7 0 10 0;
#X connect 10 0 11 0;
#X connect 11 0 14 0;
#X connect 14 0 12 0;
#X restore 194 226 pd recorder;
#X msg 194 179 rec;
#X msg 255 179 stop;
#N canvas 496 120 1114 580 player 0;
#X obj 137 81 inlet;
#X obj 382 75 inlet;
#X obj 314 75 inlet;
#X obj 143 374 tabplay~ mybuf;
#X text 133 43 play;
#X text 376 36 pause;
#X text 316 40 stop;
#X msg 141 247 0 \$1;
#X obj 141 222 int;
#X floatatom 194 173 12 0 0 0 playbacktime_in_sample - -;
#X obj 139 142 bng 15 250 50 0 empty empty empty 17 7 0 10 -262144
-1 -1;
#X msg 316 217 stop;
#X obj 146 460 outlet~;
#X text 538 48 from timeManager;
#X obj 735 82 r total-sample;
#X obj 840 80 r total-msec;
#X text 810 257 MAKE VARI-PITCH;
#X obj 605 367 tabread4~ mybuf;
#X obj 453 120 bng 15 250 50 0 empty empty empty 17 7 0 10 -262144
-1 -1;
#X floatatom 840 101 8 0 0 0 - - -;
#X floatatom 735 102 10 0 0 0 - - -;
#X obj 452 75 inlet;
#X text 444 40 vari-play;
#X text 895 101 play with the duration;
#X obj 607 294 *~;
#X obj 607 265 phasor~;
#X floatatom 623 108 5 0 0 0 - - -;
#X obj 623 84 r duration-in-Hz;
#N canvas 168 338 716 491 ellapse~ 0;
#X obj 74 294 outlet;
#X obj 107 84 tgl 15 0 empty empty empty 17 7 0 10 -262144 -1 -1 1
1;
#X obj 108 109 metro 50;
#X obj 107 143 snapshot~;
#X floatatom 104 178 10 0 0 0 - - -;
#X obj 103 216 /;
#X floatatom 101 247 5 0 0 0 - - -;
#X obj 190 42 r lb;
#X obj 70 38 inlet~;
#X obj 275 40 inlet;
#X floatatom 289 100 5 0 0 0 - - -;
#X text 324 101 total_sample;
#X msg 186 78 1;
#X connect 1 0 2 0;
#X connect 2 0 3 0;
#X connect 3 0 4 0;
#X connect 4 0 5 0;
#X connect 5 0 6 0;
#X connect 6 0 0 0;
#X connect 7 0 12 0;
#X connect 8 0 3 0;
#X connect 9 0 10 0;
#X connect 10 0 5 1;
#X connect 12 0 1 0;
#X restore 726 365 pd ellapse~;
#X floatatom 727 391 5 0 0 0 - - -;
#X obj 606 227 *;
#X floatatom 539 112 10 0 0 0 - - -;
#X obj 540 87 r spd;
#X msg 380 120 0;
#X text 637 227 Set speed as Hz;
#X obj 454 484 hsl 128 15 0 7 0 0 empty empty empty -2 -8 0 10 -262144
-1 -1 0 1;
#X floatatom 451 508 5 0 0 0 - - -;
#X text 447 463 scratch test;
#X obj 375 217 t b b;
#X msg 670 263 0;
#X obj 724 460 outlet;
#X msg 374 247 0;
#X text 644 293 rescale total sample with 0.-1.;
#X text 920 347 comment;
#X obj 501 161 pack 0 f;
#X obj 501 186 route 0;
#X obj 454 57 r scratched;
#X obj 246 458 outlet~;
#X obj 229 415 bng 15 250 50 0 empty empty empty 17 7 0 10 -262144
-1 -1;
#X obj 915 479 outlet;
#X text 902 530 bang when end normal playback;
#X connect 0 0 10 0;
#X connect 1 0 33 0;
#X connect 2 0 11 0;
#X connect 2 0 38 0;
#X connect 3 0 12 0;
#X connect 3 1 48 0;
#X connect 7 0 3 0;
#X connect 8 0 7 0;
#X connect 9 0 8 1;
#X connect 10 0 8 0;
#X connect 11 0 3 0;
#X connect 14 0 20 0;
#X connect 15 0 19 0;
#X connect 17 0 47 0;
#X connect 18 0 31 0;
#X connect 18 0 44 0;
#X connect 20 0 24 1;
#X connect 20 0 28 1;
#X connect 20 0 9 0;
#X connect 21 0 18 0;
#X connect 24 0 17 0;
#X connect 24 0 28 0;
#X connect 25 0 24 0;
#X connect 26 0 30 1;
#X connect 27 0 26 0;
#X connect 28 0 29 0;
#X connect 29 0 40 0;
#X connect 30 0 25 0;
#X connect 31 0 44 1;
#X connect 32 0 31 0;
#X connect 33 0 25 0;
#X connect 35 0 36 0;
#X connect 36 0 30 0;
#X connect 38 0 41 0;
#X connect 38 1 39 0;
#X connect 39 0 25 1;
#X connect 41 0 25 0;
#X connect 44 0 45 0;
#X connect 45 0 30 0;
#X connect 46 0 18 0;
#X connect 48 0 49 0;
#X restore 199 407 pd player;
#X msg 198 355 play;
#X msg 249 352 stop;
#N canvas 667 319 646 455 timeManager 0;
#X obj 56 27 inlet;
#X obj 115 64 expr $f1/44.1;
#X floatatom 114 126 5 0 0 0 - - -;
#X obj 426 28 inlet;
#X floatatom 431 127 5 0 0 0 - - -;
#X obj 431 194 t b f;
#X obj 378 247 * 1;
#X floatatom 377 303 5 0 0 0 - - -;
#X text 478 122 spd;
#X text 421 304 conver to total msec;
#X obj 66 394 s total-sample;
#X obj 377 392 s total-msec;
#X text 153 127 total_duration(sec);
#X obj 431 162 expr 1.0/$f1;
#X floatatom 498 204 5 0 0 0 - - -;
#X obj 227 64 expr 44100 / $f1;
#X obj 232 392 s duration-in-Hz;
#X obj 576 394 s spd;
#X connect 0 0 1 0;
#X connect 0 0 10 0;
#X connect 0 0 15 0;
#X connect 1 0 2 0;
#X connect 2 0 6 0;
#X connect 3 0 4 0;
#X connect 4 0 13 0;
#X connect 4 0 17 0;
#X connect 5 0 6 0;
#X connect 5 1 6 1;
#X connect 6 0 7 0;
#X connect 7 0 11 0;
#X connect 13 0 5 0;
#X connect 13 0 14 0;
#X connect 15 0 16 0;
#X restore 439 440 pd timeManager;
#X msg 437 295 220500;
#X text 502 340 TotalSample;
#X msg 598 299 1;
#X text 637 307 SPD;
#X obj 687 180 bng 15 250 50 0 empty empty empty 17 7 0 10 -262144
-1 -1;
#X floatatom 438 341 10 0 220500 0 - - -;
#X floatatom 598 328 12 0 0 0 - - -;
#X msg 354 350 vari-play;
#X text 696 482 set sample num manually in mybuf;
#X obj 786 215 s lb;
#X msg 298 352 pause;
#X text 428 199 Time/Sample Management;
#X text 71 197 Control;
#X floatatom 251 436 5 0 0 0 - - -;
#X obj 495 296 s fixed_smpl;
#X obj 440 34 r rec-time-in-smpl;
#X obj 57 67 route /s/test;
#X obj 155 67 route /s/rec/st /s/rec/ed;
#X obj 130 293 route /s/play/st /s/play/ed /s/play/ps /s/play/vp;
#X obj 156 102 bng 15 250 50 0 empty empty empty 17 7 0 10 -262144
-1 -1;
#X obj 225 102 bng 15 250 50 0 empty empty empty 17 7 0 10 -262144
-1 -1;
#X obj 135 325 bng 15 250 50 0 empty empty empty 17 7 0 10 -262144
-1 -1;
#X obj 204 325 bng 15 250 50 0 empty empty empty 17 7 0 10 -262144
-1 -1;
#X obj 302 324 bng 15 250 50 0 empty empty empty 17 7 0 10 -262144
-1 -1;
#X obj 371 324 bng 15 250 50 0 empty empty empty 17 7 0 10 -262144
-1 -1;
#X obj 439 318 clip 1 220500;
#X obj 136 355 t b b;
#X obj 595 129 t b f;
#X floatatom 541 121 5 0 0 0 - - -;
#X obj 537 151 s scratched;
#X obj 595 69 route /s/scratch;
#X obj 524 90 line;
#X obj 302 216 bng 15 250 50 0 empty empty empty 17 7 0 10 -262144
-1 -1;
#X obj 198 503 demux~;
#X msg 168 479 0;
#X msg 208 478 1;
#X obj 206 455 r lb;
#X obj 194 203 t b b b;
#X obj 300 446 bng 15 250 50 0 empty empty empty 17 7 0 10 -262144
-1 -1;
#X text 297 469 bang when end normal playback;
#X obj 302 265 t b;
#X text 163 528 stop scratched sound when recording;
#X obj 303 241 delay 800;
#X obj 919 289 soundfiler;
#X obj 919 229 r lb;
#X msg 919 257 read -resize default.wav mybuf;
#X text 624 380 Effected;
#X floatatom 597 402 12 0 0 0 - - -;
#X obj 8 72 s osc;
#X obj 922 69 route /s/ef/toggle /s/ef/freq /s/ef/depth;
#N canvas 949 23 560 1001 effect_engine 0;
#N canvas 0 150 1216 760 sound_mill 0;
#X obj 197 213 tgl 15 0 empty empty empty 17 7 0 10 -262144 -1 -1 1
1;
#X obj 461 106 r lb;
#X msg 198 184 1;
#X obj 197 277 gate 2;
#X msg 196 388 1;
#X msg 499 206 2;
#X msg 429 207 1;
#X floatatom 550 634 5 0 0 0 - - -;
#N canvas 942 322 622 646 modulator 0;
#X obj 24 74 inlet;
#X obj 319 74 inlet;
#X obj 103 183 snapshot~;
#X floatatom 100 218 10 0 0 0 - - -;
#X obj 99 256 + 1;
#X obj 97 289 / 2;
#X floatatom 96 349 5 0 0 0 - - -;
#X obj 104 70 inlet;
#X obj 105 135 cycle~ 0.3;
#X floatatom 104 105 5 0 0 0 - - -;
#X text 108 42 freq;
#X text 18 45 metro;
#X text 306 37 intensity;
#X obj 161 424 *;
#X floatatom 320 175 5 0 0 0 - - -;
#X obj 445 87 r lb;
#X msg 445 126 1;
#X floatatom 160 463 5 0 0 0 - - -;
#X obj 79 490 + 1;
#X floatatom 159 524 5 0 0 0 - - -;
#X obj 159 576 outlet;
#X text 215 503 <-=offset: if you want;
#X obj 158 491 + 0.35;
#X connect 0 0 2 0;
#X connect 1 0 14 0;
#X connect 2 0 3 0;
#X connect 3 0 4 0;
#X connect 4 0 5 0;
#X connect 5 0 6 0;
#X connect 6 0 13 0;
#X connect 7 0 9 0;
#X connect 8 0 2 0;
#X connect 9 0 8 0;
#X connect 13 0 17 0;
#X connect 14 0 13 1;
#X connect 15 0 16 0;
#X connect 16 0 14 0;
#X connect 17 0 18 0;
#X connect 17 0 22 0;
#X connect 19 0 20 0;
#X connect 22 0 19 0;
#X restore 746 347 pd modulator;
#X floatatom 660 207 5 0 0 0 - - -;
#X text 700 208 freq;
#X text 495 182 mod on;
#X msg 660 172 0.5;
#X text 690 173 Initial freq;
#X floatatom 932 207 5 0 0 0 - - -;
#X obj 77 29 inlet;
#X obj 78 60 tgl 15 0 empty empty empty 17 7 0 10 -262144 -1 -1 0 1
;
#X obj 78 85 + 1;
#X text 975 209 intensity;
#X obj 792 70 inlet;
#X obj 929 72 inlet;
#X obj 548 590 line;
#X msg 550 551 \$1 50;
#X obj 550 676 outlet;
#X text 397 184 mod off (def);
#X obj 196 238 metro 10;
#X connect 0 0 25 0;
#X connect 1 0 2 0;
#X connect 1 0 12 0;
#X connect 1 0 6 0;
#X connect 2 0 0 0;
#X connect 3 0 4 0;
#X connect 3 1 8 0;
#X connect 4 0 22 0;
#X connect 5 0 3 0;
#X connect 6 0 3 0;
#X connect 7 0 23 0;
#X connect 8 0 22 0;
#X connect 9 0 8 1;
#X connect 12 0 9 0;
#X connect 14 0 8 2;
#X connect 15 0 16 0;
#X connect 16 0 17 0;
#X connect 17 0 3 0;
#X connect 19 0 8 1;
#X connect 20 0 14 0;
#X connect 21 0 7 0;
#X connect 22 0 21 0;
#X connect 25 0 3 1;
#X restore 82 414 pd sound_mill;
#X text 65 335 on/off;
#X obj 81 370 tgl 15 0 empty empty empty 17 7 0 10 -262144 -1 -1 0
1;
#X floatatom 85 464 5 0 0 0 - - -;
#X floatatom 123 365 5 0 0 0 - - -;
#X floatatom 169 366 5 0 0 0 - - -;
#X text 121 330 freq;
#X text 175 328 intencity;
#X obj 55 35 r osc;
#X obj 54 69 route /s/ef/toggle /s/ef/freq /s/ef/depth;
#X obj 84 502 s ef;
#X obj 131 178 * 15;
#X obj 134 211 + 1.5;
#X obj 212 179 * 15;
#X text 249 176 rescale;
#X text 162 175 rescale;
#X text 261 211 offset;
#X text 169 210 offset;
#X obj 130 137 *;
#X obj 214 131 *;
#X obj 214 257 + 0.75;
#X obj 212 210 * 0.8;
#X text 341 38 from round_mng;
#X obj 557 65 r ef_reset;
#X obj 479 66 r ef_state;
#X obj 348 65 r ef_depth_by_round;
#X floatatom 348 88 5 0 0 0 - - -;
#X obj 557 97 bng 15 250 50 0 empty empty empty 17 7 0 10 -262144 -1
-1;
#X obj 175 504 outlet;
#X connect 0 0 3 0;
#X connect 2 0 0 0;
#X connect 2 0 28 0;
#X connect 3 0 10 0;
#X connect 4 0 0 1;
#X connect 5 0 0 2;
#X connect 8 0 9 0;
#X connect 9 0 2 0;
#X connect 9 1 18 1;
#X connect 9 1 18 0;
#X connect 9 2 19 1;
#X connect 9 2 19 0;
#X connect 11 0 12 0;
#X connect 12 0 4 0;
#X connect 13 0 21 0;
#X connect 18 0 11 0;
#X connect 19 0 13 0;
#X connect 20 0 5 0;
#X connect 21 0 20 0;
#X connect 23 0 27 0;
#X connect 24 0 2 0;
#X connect 25 0 26 0;
#X connect 26 0 19 1;
#X connect 26 0 19 0;
#X connect 26 0 18 1;
#X connect 26 0 18 0;
#X restore 922 96 pd effect_engine;
#X text 921 52 OSC: send/receive to effect section;
#N canvas 351 588 762 470 ef 0;
#X obj 109 51 inlet;
#X obj 119 259 outlet;
#X obj 117 136 * 1;
#X obj 225 51 r ef;
#X floatatom 117 205 5 0 0 0 - - -;
#X floatatom 223 82 5 0 0 0 - - -;
#X obj 202 140 * 1;
#X floatatom 259 198 5 0 0 0 - - -;
#X obj 349 194 bng 15 250 50 0 empty empty empty 17 7 0 10 -262144
-1 -1;
#X connect 0 0 2 0;
#X connect 0 0 6 1;
#X connect 2 0 4 0;
#X connect 3 0 5 0;
#X connect 4 0 1 0;
#X connect 5 0 6 0;
#X connect 5 0 2 1;
#X connect 6 0 4 0;
#X connect 6 0 7 0;
#X connect 6 0 8 0;
#X restore 598 361 pd ef;
#N canvas 476 70 1029 880 round_mng 1;
#X obj 337 163 bng 15 250 50 0 empty empty empty 17 7 0 10 -262144
-1 -1;
#X obj 336 227 count;
#X floatatom 340 272 5 0 0 0 - - -;
#X obj 576 32 r lb;
#X obj 344 324 /;
#X floatatom 343 364 5 0 0 0 - - -;
#X obj 732 466 sel 0;
#X text 474 164 count to the end;
#X obj 740 584 gate;
#X msg 882 492 0;
#X obj 733 503 t b b;
#X msg 882 526 1;
#X text 730 439 end detection;
#X obj 742 661 bng 15 250 50 0 empty empty empty 17 7 0 10 -262144
-1 -1;
#X floatatom 370 490 5 0 0 0 - - -;
#X obj 499 118 bng 15 250 50 0 empty empty empty 17 7 0 10 -262144
-1 -1;
#X text 373 458 effect on/off;
#X text 491 492 effect threath;
#X obj 178 30 r osc;
#X obj 329 533 -;
#X floatatom 328 570 5 0 0 0 - - -;
#X floatatom 376 613 5 0 0 0 - - -;
#N canvas 420 381 751 589 threath_bool 0;
#X obj 159 90 inlet;
#X obj 257 85 inlet;
#X obj 197 145 >;
#X obj 213 235 bng 15 250 50 0 empty empty empty 17 7 0 10 -262144
-1 -1;
#X msg 211 281 1;
#X obj 195 199 sel 0 1;
#X obj 186 237 bng 15 250 50 0 empty empty empty 17 7 0 10 -262144
-1 -1;
#X msg 184 283 0;
#X obj 209 363 tgl 15 0 empty empty empty 17 7 0 10 -262144 -1 -1 0
1;
#X obj 222 437 outlet;
#X floatatom 319 32 5 0 0 0 - - -;
#X floatatom 140 14 5 0 0 0 - - -;
#X connect 0 0 2 0;
#X connect 1 0 2 1;
#X connect 2 0 5 0;
#X connect 3 0 4 0;
#X connect 4 0 8 0;
#X connect 5 0 6 0;
#X connect 5 1 3 0;
#X connect 6 0 7 0;
#X connect 7 0 8 0;
#X connect 8 0 9 0;
#X connect 10 0 2 1;
#X connect 11 0 2 0;
#X restore 505 568 pd threath_bool;
#X obj 614 676 tgl 15 0 empty empty empty 17 7 0 10 -262144 -1 -1 0
1;
#N canvas 129 559 450 300 rev_subtr 0;
#X obj 143 52 inlet;
#X obj 148 98 t b f;
#X floatatom 184 141 5 0 0 0 - - -;
#X msg 137 137 1;
#X obj 163 188 -;
#X obj 177 234 outlet;
#X connect 0 0 1 0;
#X connect 1 0 3 0;
#X connect 1 1 2 0;
#X connect 2 0 4 1;
#X connect 3 0 4 0;
#X connect 4 0 5 0;
#X restore 380 563 pd rev_subtr;
#X obj 337 638 /;
#X obj 337 675 expr $f1 \; if ($f1<0 \, 0 \, $f1);
#X floatatom 443 729 5 0 0 0 - - -;
#X obj 442 768 s ef_depth_by_round;
#X obj 738 764 s ef_reset;
#X obj 616 769 s ef_state;
#X text 782 584 avoid first 0;
#X msg 388 169 0;
#X obj 381 105 bng 15 250 50 0 empty empty empty 17 7 0 10 -262144
-1 -1;
#X obj 381 125 t b b b b;
#X text 406 103 reset bangs;
#X obj 81 115 sel 0 1;
#X obj 83 225 gate;
#X msg 82 154 0;
#X msg 100 154 1;
#X obj 175 112 bng 15 250 50 0 empty empty empty 17 7 0 10 -262144
-1 -1;
#X obj 89 188 tgl 15 0 empty empty empty 17 7 0 10 -262144 -1 -1 0
1;
#X floatatom 506 369 5 0 0 0 - - -;
#X obj 176 63 route /round/count /round/reset /round/gate /round/limit
/round/threath;
#X floatatom 452 204 5 0 0 0 - - -;
#X obj 813 762 outlet;
#X obj 307 840 outlet;
#X obj 650 65 bng 15 250 50 0 empty empty empty 17 7 0 10 -262144 -1
-1;
#X obj 650 31 r reset_from_rec;
#X text 478 149 <<< def val;
#X text 546 318 <<< def val;
#X msg 508 319 0.5;
#X msg 446 163 150;
#N canvas 843 332 503 465 counter 1;
#X obj 107 123 bng 15 250 50 0 empty empty empty 17 7 0 10 -262144
-1 -1;
#X floatatom 120 312 5 0 0 0 - - -;
#X msg 198 244 0;
#X msg 114 207 1;
#X obj 115 261 +;
#X obj 124 65 inlet;
#X obj 278 62 inlet;
#X floatatom 251 245 5 0 0 0 - - -;
#X floatatom 296 120 5 0 0 0 - - -;
#X obj 124 398 outlet;
#X text 116 30 increment;
#X obj 207 343 >=;
#X obj 219 431 outlet;
#X obj 304 296 print;
#X obj 161 351 t i i;
#X text 275 36 set num=max;
#X obj 386 66 inlet;
#X text 388 49 reset;
#X obj 373 132 bng 15 250 50 0 empty empty empty 17 7 0 10 -262144
-1 -1;
#X floatatom 327 369 5 0 0 0 - - -;
#X obj 217 382 sel 1;
#X obj 216 407 bng 15 250 50 0 empty empty empty 17 7 0 10 -262144
-1 -1;
#X connect 0 0 3 0;
#X connect 1 0 9 0;
#X connect 1 0 14 0;
#X connect 2 0 1 0;
#X connect 3 0 4 0;
#X connect 4 0 1 0;
#X connect 5 0 0 0;
#X connect 6 0 7 0;
#X connect 7 0 11 1;
#X connect 7 0 13 0;
#X connect 8 0 7 0;
#X connect 11 0 20 0;
#X connect 14 0 11 0;
#X connect 14 0 19 0;
#X connect 14 1 4 1;
#X connect 16 0 18 0;
#X connect 18 0 2 0;
#X connect 20 0 21 0;
#X connect 21 0 12 0;
#X restore 106 513 pd counter;
#X obj 114 473 bng 15 250 50 0 empty empty empty 17 7 0 10 -262144
-1 -1;
#X floatatom 110 557 5 0 0 0 - - -;
#X msg 164 483 0;
#X msg 199 487 5;
#X obj 185 573 bng 15 250 50 0 empty empty empty 17 7 0 10 -262144
-1 -1;
#X connect 0 0 1 0;
#X connect 1 0 2 0;
#X connect 2 0 4 0;
#X connect 3 0 15 0;
#X connect 3 0 39 0;
#X connect 4 0 5 0;
#X connect 5 0 14 0;
#X connect 6 0 10 0;
#X connect 8 0 13 0;
#X connect 9 0 8 0;
#X connect 10 0 11 0;
#X connect 10 1 8 1;
#X connect 11 0 8 0;
#X connect 13 0 29 0;
#X connect 13 0 45 0;
#X connect 14 0 19 0;
#X connect 14 0 22 0;
#X connect 14 0 46 0;
#X connect 15 0 9 0;
#X connect 15 0 52 0;
#X connect 15 0 51 0;
#X connect 18 0 43 0;
#X connect 19 0 20 0;
#X connect 20 0 25 0;
#X connect 21 0 25 1;
#X connect 22 0 23 0;
#X connect 23 0 30 0;
#X connect 24 0 21 0;
#X connect 25 0 26 0;
#X connect 26 1 27 0;
#X connect 27 0 28 0;
#X connect 32 0 1 1;
#X connect 33 0 34 0;
#X connect 34 0 44 0;
#X connect 34 1 0 0;
#X connect 34 2 0 0;
#X connect 34 3 32 0;
#X connect 36 0 38 0;
#X connect 36 1 39 0;
#X connect 37 0 0 0;
#X connect 38 0 41 0;
#X connect 39 0 41 0;
#X connect 40 0 37 1;
#X connect 41 0 37 0;
#X connect 42 0 22 1;
#X connect 42 0 24 0;
#X connect 42 0 19 1;
#X connect 43 0 40 0;
#X connect 43 1 33 0;
#X connect 43 2 36 0;
#X connect 43 3 44 0;
#X connect 43 4 42 0;
#X connect 44 0 1 1;
#X connect 44 0 4 1;
#X connect 47 0 33 0;
#X connect 48 0 47 0;
#X connect 51 0 42 0;
#X connect 52 0 44 0;
#X connect 53 0 55 0;
#X connect 53 1 58 0;
#X connect 54 0 53 0;
#X connect 56 0 53 1;
#X connect 58 0 53 2;
#X restore 919 169 pd round_mng;
#X obj 919 149 route /round/count /round/reset;
#N canvas 1055 224 500 634 global_controll 0;
#X obj 57 58 r osc;
#X obj 296 60 r lb;
#X msg 93 183 1;
#X floatatom 59 247 5 0 0 0 - - -;
#X obj 60 293 s g_gain;
#X obj 57 93 route /s/master_vol /s/ef/reset /reset /s/scratch_rate
;
#X obj 252 302 s g_scratch_rate;
#X connect 0 0 5 0;
#X connect 1 0 2 0;
#X connect 2 0 3 0;
#X connect 3 0 4 0;
#X connect 5 0 3 0;
#X connect 5 3 6 0;
#X restore 922 356 pd global_controll;
#X floatatom 155 593 5 0 0 0 - - -;
#N canvas 872 509 450 300 master_vol 0;
#X obj 125 44 inlet~;
#X obj 166 149 *~ 1;
#X obj 237 92 r g_gain;
#X obj 191 237 outlet~;
#X floatatom 209 129 5 0 0 0 - - -;
#X obj 327 239 outlet;
#X connect 0 0 1 0;
#X connect 1 0 3 0;
#X connect 2 0 4 0;
#X connect 4 0 1 1;
#X connect 4 0 5 0;
#X restore 103 561 pd master_vol;
#X obj 922 120 tgl 15 0 empty empty empty 17 7 0 10 -262144 -1 -1 0
1;
#X obj 987 195 bng 15 250 50 0 empty empty empty 17 7 0 10 -262144
-1 -1;
#X floatatom 919 193 5 0 0 0 - - -;
#X obj 194 256 s reset_from_rec;
#X obj 561 347 *;
#X obj 687 216 delay 200;
#X msg 594 92 \$1 200;
#N canvas 227 322 450 300 global_spd 0;
#X obj 113 61 inlet;
#X obj 115 242 outlet;
#X obj 276 79 r g_scratch_rate;
#X obj 200 147 * 1;
#X connect 0 0 3 0;
#X connect 2 0 3 1;
#X connect 3 0 1 0;
#X restore 596 430 pd global_spd;
#X floatatom 595 460 5 0 0 0 - - -;
#X connect 0 0 32 0;
#X connect 0 0 33 0;
#X connect 0 0 34 0;
#X connect 0 0 46 0;
#X connect 0 0 64 0;
#X connect 2 0 20 0;
#X connect 6 0 8 0;
#X connect 8 0 5 0;
#X connect 8 0 5 1;
#X connect 10 0 53 0;
#X connect 11 0 9 1;
#X connect 11 0 48 0;
#X connect 12 0 73 0;
#X connect 12 1 49 0;
#X connect 12 2 29 0;
#X connect 12 3 54 0;
#X connect 13 0 12 0;
#X connect 14 0 12 1;
#X connect 16 0 30 0;
#X connect 16 0 41 2;
#X connect 16 0 41 0;
#X connect 18 0 22 0;
#X connect 20 0 18 0;
#X connect 20 0 16 0;
#X connect 20 0 25 0;
#X connect 20 0 79 0;
#X connect 21 0 15 0;
#X connect 22 0 78 1;
#X connect 22 0 78 0;
#X connect 23 0 12 3;
#X connect 26 0 12 2;
#X connect 31 0 41 0;
#X connect 32 0 6 0;
#X connect 33 0 35 0;
#X connect 33 1 36 0;
#X connect 34 0 37 0;
#X connect 34 1 38 0;
#X connect 34 2 39 0;
#X connect 34 3 40 0;
#X connect 35 0 10 0;
#X connect 36 0 11 0;
#X connect 37 0 42 0;
#X connect 38 0 14 0;
#X connect 39 0 26 0;
#X connect 40 0 23 0;
#X connect 41 0 21 0;
#X connect 42 0 13 0;
#X connect 42 1 14 0;
#X connect 43 0 45 0;
#X connect 43 1 22 0;
#X connect 44 0 43 0;
#X connect 46 0 80 0;
#X connect 47 0 44 0;
#X connect 48 0 58 0;
#X connect 49 1 73 0;
#X connect 50 0 49 0;
#X connect 51 0 49 0;
#X connect 52 0 51 0;
#X connect 53 0 9 0;
#X connect 53 1 50 0;
#X connect 53 1 77 0;
#X connect 53 2 14 0;
#X connect 54 0 51 0;
#X connect 56 0 37 0;
#X connect 58 0 56 0;
#X connect 60 0 61 0;
#X connect 61 0 59 0;
#X connect 63 0 81 0;
#X connect 66 0 74 0;
#X connect 68 0 63 0;
#X connect 69 0 76 0;
#X connect 69 1 75 0;
#X connect 73 0 5 0;
#X connect 73 0 5 1;
#X connect 73 1 72 0;
#X connect 78 0 68 0;
#X connect 79 0 1 0;
#X connect 79 0 4 0;
#X connect 80 0 47 0;
#X connect 81 0 82 0;
#X connect 82 0 15 1;
